<svg id="图层_1" data-name="图层 1" xmlns="http://www.w3.org/2000/svg" xmlns:xlink="http://www.w3.org/1999/xlink" viewBox="0 0 2250.02 610.2"><defs><style>.cls-1{fill:none;}.cls-2{clip-path:url(#clip-path);}.cls-3{fill:url(#未命名的渐变_13);}.cls-4{fill:url(#未命名的渐变_28);}.cls-5{fill:url(#未命名的渐变_28-2);}.cls-6{fill:url(#未命名的渐变_28-3);}.cls-7{fill:#333;}</style><clipPath id="clip-path" transform="translate(-63.14 -234.4)"><rect class="cls-1" x="63.25" y="234.57" width="549.17" height="610.86"/></clipPath><linearGradient id="未命名的渐变_13" x1="140.07" y1="341.96" x2="528.22" y2="730.11" gradientUnits="userSpaceOnUse"><stop offset="0" stop-color="#5b86e5"/><stop offset="1" stop-color="#36d1dc"/></linearGradient><linearGradient id="未命名的渐变_28" x1="242.69" y1="395.92" x2="496.18" y2="565.41" gradientUnits="userSpaceOnUse"><stop offset="0.01" stop-color="#ff722f"/><stop offset="1" stop-color="#dd246a"/></linearGradient><linearGradient id="未命名的渐变_28-2" x1="166.48" y1="509.91" x2="419.97" y2="679.4" xlink:href="#未命名的渐变_28"/><linearGradient id="未命名的渐变_28-3" x1="208.82" y1="446.59" x2="462.3" y2="616.08" xlink:href="#未命名的渐变_28"/></defs><title>logo2</title><g class="cls-2"><path class="cls-3" d="M350.34,288.74a25.47,25.47,0,0,0-25.47,0L126.81,403.09a25.47,25.47,0,0,0-12.73,22.06v228.7a25.45,25.45,0,0,0,12.73,22L324.87,790.25a25.47,25.47,0,0,0,25.47,0L548.4,675.9a25.45,25.45,0,0,0,12.73-22V425.15a25.47,25.47,0,0,0-12.73-22.06Zm25.47-44.11L573.87,359a76.4,76.4,0,0,1,38.2,66.17v228.7A76.4,76.4,0,0,1,573.87,720L375.81,834.36a76.41,76.41,0,0,1-76.41,0L101.34,720a76.4,76.4,0,0,1-38.2-66.16V425.15A76.4,76.4,0,0,1,101.34,359L299.4,244.63a76.46,76.46,0,0,1,76.41,0Zm0,0" transform="translate(-63.14 -234.4)"/></g><path class="cls-4" d="M312.17,391.2a25.47,25.47,0,1,1,50.93,0V527.6a25.47,25.47,0,1,1-50.93,0Zm0,0" transform="translate(-63.14 -234.4)"/><path class="cls-5" d="M223.51,635A25.47,25.47,0,1,1,198,590.89l118.15-68.2a25.47,25.47,0,0,1,25.47,44.11Zm0,0" transform="translate(-63.14 -234.4)"/><path class="cls-6" d="M452.92,635a25.47,25.47,0,1,0,25.47-44.11l-118.12-68.2A25.47,25.47,0,0,0,334.8,566.8L453,635Zm0,0" transform="translate(-63.14 -234.4)"/><path class="cls-7" d="M975.17,420.36V454H888v243.6h-38.8V454H762v-33.6Z" transform="translate(-63.14 -234.4)"/><path class="cls-7" d="M1207.17,593.56q0,24.81-7.2,44.8a102.5,102.5,0,0,1-20.2,34.4,88.89,88.89,0,0,1-31,22.2,102.4,102.4,0,0,1-78.4,0,88.8,88.8,0,0,1-31-22.2,102.33,102.33,0,0,1-20.2-34.4q-7.2-20-7.2-44.8,0-24.39,7.2-44.6a102.11,102.11,0,0,1,20.2-34.6,88.8,88.8,0,0,1,31-22.2,102.4,102.4,0,0,1,78.4,0,88.89,88.89,0,0,1,31,22.2A102.27,102.27,0,0,1,1200,549Q1207.17,569.17,1207.17,593.56Zm-38.8,0q0-35.19-15.8-55.8t-43-20.6q-27.21,0-43,20.6t-15.8,55.8q0,35.21,15.8,55.8t43,20.6q27.2,0,43-20.6T1168.37,593.56Z" transform="translate(-63.14 -234.4)"/><path class="cls-7" d="M1453.17,593.56q0,24.81-7.2,44.8a102.5,102.5,0,0,1-20.2,34.4,88.89,88.89,0,0,1-31,22.2,102.4,102.4,0,0,1-78.4,0,88.8,88.8,0,0,1-31-22.2,102.33,102.33,0,0,1-20.2-34.4q-7.2-20-7.2-44.8,0-24.39,7.2-44.6a102.11,102.11,0,0,1,20.2-34.6,88.8,88.8,0,0,1,31-22.2,102.4,102.4,0,0,1,78.4,0,88.89,88.89,0,0,1,31,22.2A102.27,102.27,0,0,1,1446,549Q1453.17,569.17,1453.17,593.56Zm-38.8,0q0-35.19-15.8-55.8t-43-20.6q-27.21,0-43,20.6t-15.8,55.8q0,35.21,15.8,55.8t43,20.6q27.2,0,43-20.6T1414.37,593.56Z" transform="translate(-63.14 -234.4)"/><path class="cls-7" d="M1578,701.56q-34.39-.79-48.8-14.8t-14.4-43.6V393.56l37.2-6.4v250a60.57,60.57,0,0,0,1.6,15.2,20.88,20.88,0,0,0,5.2,9.6,22.37,22.37,0,0,0,9.6,5.4,99.21,99.21,0,0,0,14.8,3Z" transform="translate(-63.14 -234.4)"/><path class="cls-7" d="M1712,700q-8.4,0-18.2-.4t-19.6-1.2q-9.79-.79-19.4-2a147.49,147.49,0,0,1-17.6-3.2V424.36a149.53,149.53,0,0,1,17.6-3.2q9.6-1.2,19.4-2t19.4-1.2q9.6-.39,18-.4a266.45,266.45,0,0,1,45,3.6q21,3.6,36.4,12.2a66,66,0,0,1,24.2,22.6q8.8,14,8.8,34.4,0,22.8-10.8,37.4a64.88,64.88,0,0,1-28.8,21.8q24.41,7.2,38.8,22.8t14.4,44q0,41.61-30.6,62.6T1712,700Zm-36.4-162.8h40.8a175.39,175.39,0,0,0,27.2-2,66.8,66.8,0,0,0,22.2-7.2,40.43,40.43,0,0,0,14.8-13.6q5.4-8.4,5.4-21.2,0-12-5.6-20.2a40.57,40.57,0,0,0-15.4-13.2,83.42,83.42,0,0,0-23-7.4,156.4,156.4,0,0,0-28-2.4q-14.81,0-23.2.4t-15.2,1.2Zm0,31.2V666q4.39.4,10.4.8,5.19.4,12.2.6t16.2.2a230.11,230.11,0,0,0,32.6-2.2,91.26,91.26,0,0,0,27-7.8,47.34,47.34,0,0,0,18.6-15.6q7-10,7-25.2,0-13.59-5.2-23a38.75,38.75,0,0,0-15-15,72.19,72.19,0,0,0-23.4-8,175.76,175.76,0,0,0-30.4-2.4Z" transform="translate(-63.14 -234.4)"/><path class="cls-7" d="M2085.56,593.56q0,24.81-7.2,44.8a102.5,102.5,0,0,1-20.2,34.4,88.89,88.89,0,0,1-31,22.2,102.4,102.4,0,0,1-78.4,0,88.8,88.8,0,0,1-31-22.2,102.33,102.33,0,0,1-20.2-34.4q-7.2-20-7.2-44.8,0-24.39,7.2-44.6a102.11,102.11,0,0,1,20.2-34.6,88.8,88.8,0,0,1,31-22.2,102.4,102.4,0,0,1,78.4,0,88.89,88.89,0,0,1,31,22.2,102.27,102.27,0,0,1,20.2,34.6Q2085.56,569.17,2085.56,593.56Zm-38.8,0q0-35.19-15.8-55.8t-43-20.6q-27.21,0-43,20.6t-15.8,55.8q0,35.21,15.8,55.8t43,20.6q27.19,0,43-20.6T2046.76,593.56Z" transform="translate(-63.14 -234.4)"/><path class="cls-7" d="M2272.36,697.56q-4.41-8.79-10.8-19.6t-14-22.2q-7.61-11.4-15.6-22.6t-15.6-21.2q-7.61,10-15.6,21.4t-15.4,22.8q-7.41,11.4-13.8,22.2t-10.8,19.2h-38.4a508.15,508.15,0,0,1,33.4-55.4q19.39-28.2,38.6-53.8l-68.8-98.8h42l49.6,72.8,50-72.8h39.6l-67.2,96.4q19.2,26,39.4,55a479.54,479.54,0,0,1,34.2,56.6Z" transform="translate(-63.14 -234.4)"/></svg>